<?xml version="1.0" encoding="UTF-8"?>
<svg version="1.1" viewBox="0 0 1600 1600" width="1280" height="1280" xmlns="http://www.w3.org/2000/svg">
<path transform="translate(787 -.238)" d="m0 0c0.984-0.00984 1.97-0.0197 2.98-0.0298 23.2-0.184 45.6 0.425 68.5 4.27 1.55 0.255 3.11 0.509 4.66 0.764 45.4 7.52 90.2 20.3 130 43.2 1.89 1.02 3.79 2.04 5.69 3.06 4 2.19 7.98 4.42 11.9 6.69 1 0.572 2.01 1.14 3.04 1.73 2.34 1.52 2.34 1.52 3.34 3.52-0.829 1.81-0.829 1.81-2.18 4.01-0.741 1.22-0.741 1.22-1.5 2.47-0.541 0.874-1.08 1.75-1.64 2.65-0.544 0.891-1.09 1.78-1.65 2.7-1.67 2.73-3.35 5.45-5.04 8.17-0.502 0.812-1 1.62-1.52 2.46-7.18 11.6-7.18 11.6-10.5 16.5-3.74-0.577-6.43-1.61-9.68-3.55-1.35-0.79-1.35-0.79-2.72-1.6-0.962-0.569-1.92-1.14-2.92-1.72-80.6-46.5-181-58.7-271-34.7-55 15.4-106 41.8-149 80.6-1.91 1.74-3.85 3.41-5.82 5.08-9.43 8.24-18.4 17.2-26.1 27.1-1.94 2.4-3.94 4.68-6.01 6.97-4.15 4.64-7.94 9.48-11.6 14.5-0.653 0.875-1.31 1.75-1.98 2.65-5.2 7.03-10.1 14.2-14.6 21.7l-1.15 1.87c-11.2 18.3-21.1 37.2-28.9 57.1-0.438 1.1-0.438 1.1-0.884 2.23-12 30.4-19.7 62.3-23.1 94.8-0.0943 0.818-0.189 1.64-0.286 2.48-1.09 10.8-0.957 21.6-0.964 32.5-0.00101 1.07-0.00201 2.13-0.00305 3.23 0.0109 17.1 0.722 33.8 3.25 50.8 0.209 1.47 0.209 1.47 0.422 2.97 4.68 32.2 14 64 27.5 93.6 1.05 2.32 2.08 4.65 3.1 6.98 11.3 25.3 26.8 48.8 44 70.4 0.727 0.922 1.45 1.84 2.2 2.79 6.57 8.19 13.6 16.2 21.2 23.5 1.64 1.75 1.64 1.75 1.64 3.75 0.99 0.33 1.98 0.66 3 1v2c1.32 0.66 2.64 1.32 4 2v2c0.597 0.267 1.19 0.534 1.81 0.809 2.24 1.22 3.54 2.39 5.25 4.25 4.63 4.75 9.75 8.81 14.9 12.9 0.811 0.65 0.811 0.65 1.64 1.31 15.1 12.1 30.8 22.7 47.4 32.7 0.911 0.558 1.82 1.12 2.76 1.69 0.889 0.541 1.78 1.08 2.69 1.64 0.801 0.489 1.6 0.978 2.43 1.48 2.2 1.32 2.2 1.32 5.12 2.19-0.33-0.66-0.66-1.32-1-2-0.096-2.87-0.13-5.72-0.12-8.59-8.54e-4 -0.9-0.00171-1.8-0.00259-2.73-0.00165-3.03 0.00387-6.07 0.00932-9.1 2.82e-4 -2.17 1.24e-4 -4.34-4.43e-4 -6.5-2.88e-4 -5.9 0.00561-11.8 0.0126-17.7 0.00623-6.16 0.00684-12.3 0.00803-18.5 0.00311-11.7 0.0113-23.3 0.0213-35 0.0112-13.3 0.0167-26.6 0.0217-39.9 0.0105-27.3 0.0281-54.7 0.0503-82-0.74-0.0798-1.48-0.16-2.24-0.242-3.4-0.369-6.79-0.747-10.2-1.13-1.16-0.125-2.33-0.251-3.53-0.38-24.3-2.73-45.3-12.9-61.2-31.9-16.9-21.4-20.2-46.2-20.1-72.7 5.66e-4 -1.77 2.44e-4 -3.53-8.85e-4 -5.3-5.68e-4 -4.74 0.0111-9.47 0.0251-14.2 0.0126-4.97 0.0137-9.94 0.0161-14.9 0.00619-9.39 0.0226-18.8 0.0427-28.2 0.0225-10.7 0.0334-21.4 0.0434-32.1 0.0208-22 0.056-44 0.101-66 2.83-0.943 4.54-1.12 7.47-1.11 0.913 1.21e-4 1.83 2.42e-4 2.77 3.66e-4 0.956 0.00512 1.91 0.0102 2.9 0.0155 0.882 0.00101 1.76 0.00201 2.67 0.00305 3.29 0.00523 6.59 0.0192 9.88 0.0321 7.36 0.0206 14.7 0.0412 22.3 0.0625v73h49c-0.0116-5.02-0.0232-10-0.0352-15.2-0.00511-3.18-0.00992-6.35-0.0137-9.53-0.00598-5.04-0.0131-10.1-0.0266-15.1-0.0109-4.07-0.0168-8.13-0.0194-12.2-0.00185-1.55-0.00546-3.1-0.0109-4.66-0.00724-2.17-0.00826-4.34-0.0078-6.51-0.00222-1.24-0.00444-2.47-0.00673-3.75 0.12-3.02 0.12-3.02 1.12-6.02 23.3 0.495 23.3 0.495 47 1v72h49c-0.0116-4.68-0.0232-9.37-0.0352-14.2-0.00511-2.98-0.00993-5.95-0.0137-8.93-0.00597-4.72-0.013-9.44-0.0266-14.2-0.0109-3.81-0.0169-7.61-0.0194-11.4-0.00184-1.45-0.00543-2.9-0.0109-4.35-0.00731-2.04-0.00826-4.07-0.0078-6.11-0.00222-1.16-0.00444-2.31-0.00673-3.51 0.126-3.51 0.564-6.88 1.12-10.3 3.96-0.0253 7.92-0.0431 11.9-0.0549 1.99-0.00732 3.97-0.02 5.96-0.033 7.08-0.0176 14.1 0.147 21.2 0.594 0.774 0.0473 1.55 0.0945 2.34 0.143 1.88 0.115 3.76 0.233 5.64 0.351 0.0702 24.1 0.123 48.2 0.155 72.4 0.0154 11.2 0.0365 22.4 0.0709 33.6 0.03 9.77 0.0493 19.5 0.0559 29.3 0.0039 5.17 0.013 10.3 0.0349 15.5 0.0205 4.87 0.0266 9.75 0.0221 14.6 8.18e-4 1.78 0.00669 3.56 0.0183 5.34 0.17 27.5-7.97 50.1-27 70.3-18.9 18.5-44.6 24.9-70.4 24.9v245c5.28 1.32 10.6 2.64 16 4 5.24 1.53 5.24 1.53 7.55 2.23 20 6.07 40.7 9.41 61.4 11.8 0.913 0.104 1.83 0.209 2.77 0.316 49.3 5.43 98.3-1.85 146-15.5 0.849-0.238 1.7-0.476 2.57-0.72 2.01-0.6 3.97-1.33 5.93-2.09 1.28-3.83 1.13-7.42 1.12-11.4 8.54e-4 -0.868 0.00171-1.74 0.00259-2.63 0.00165-2.92-0.00386-5.84-0.00932-8.76-2.82e-4 -2.09-1.24e-4 -4.18 4.43e-4 -6.27 2.88e-4 -5.68-0.0056-11.4-0.0126-17-0.00624-5.93-0.00684-11.9-0.00803-17.8-0.00311-11.2-0.0113-22.5-0.0213-33.7-0.0112-12.8-0.0167-25.6-0.0217-38.4-0.0105-26.3-0.0281-52.7-0.0503-79-0.608-0.0616-1.22-0.123-1.84-0.187-0.803-0.0846-1.61-0.169-2.43-0.256-0.794-0.0823-1.59-0.165-2.4-0.249-23.6-3.13-46.8-20.1-61.1-38.2-30-41.4-33.4-95.2-26-144 6.84-41.8 23.2-86.8 56.7-115 0.717-0.628 1.43-1.26 2.17-1.9 18.1-15.4 40.9-23.7 64.8-22.1 29.9 2.6 53.5 18.3 72.5 40.8 22.8 28.2 34.4 63.7 40.2 99 0.12 0.728 0.239 1.46 0.362 2.21 1.85 12 2.14 24.1 2.14 36.2 0.00218 2.44 0.0204 4.88 0.0393 7.32 0.0502 13.9-0.759 27.9-3.97 41.5-0.169 0.729-0.338 1.46-0.513 2.21-7.23 30-22.3 60-49 76.9-2.22 1.31-4.45 2.6-6.69 3.88-1.38 0.804-1.38 0.804-2.8 1.62-10.3 5.6-21.9 8.54-33.2 11.4-0.33 63.4-0.66 127-1 192 9.3-5.06 9.3-5.06 18.4-10.4 0.632-0.381 1.26-0.762 1.92-1.15 18.1-11 35.5-23.5 51-38 2.11-1.95 4.25-3.83 6.43-5.7 4.76-4.15 9.24-8.56 13.7-13 0.84-0.841 1.68-1.68 2.55-2.55 5.76-5.81 11-11.7 16-18.2 1.58-1.86 3.16-3.71 4.75-5.56 11-13.3 20.6-27.5 29.2-42.4 0.418-0.716 0.837-1.43 1.27-2.17 23.9-41.1 39-85.8 45.7-133 0.168-1.15 0.168-1.15 0.339-2.33 2.3-16.1 2.87-32.1 2.85-48.3-6.04e-4 -0.833-0.00121-1.67-0.00183-2.52-0.0256-13-0.427-25.9-2.19-38.9-0.134-1.01-0.268-2.02-0.407-3.06-11.9-87.1-54.1-176-124-231-2.06-1.56-4.13-3.12-6.2-4.66 1.47-4.68 4.22-7.85 7.44-11.4 5.28-6.01 10.3-12.2 15.2-18.5 2.1-2.71 4.23-5.39 6.38-8.06 8.2 3.64 14.9 10.8 21.1 17.1 1.85 1.86 3.77 3.56 5.76 5.27 6.95 5.99 13.4 12.6 19.3 19.5 2.09 2.4 4.27 4.71 6.45 7.03 6.64 7.29 12.5 15.2 18.4 23.1 0.811 1.08 0.811 1.08 1.64 2.19 8.86 11.8 16.7 24.2 24.4 36.8 0.781 1.28 0.781 1.28 1.58 2.59 2.95 4.86 5.74 9.74 8.24 14.9 0.497 1.01 0.497 1.01 1 2.04 1.07 2.17 2.13 4.35 3.18 6.53 0.365 0.745 0.731 1.49 1.11 2.26 20.9 42.7 31.1 85.8 38.9 133 79.2 0.33 158 0.66 240 1 7.92 31.7 7.92 31.7 16 64 3.01 12 6.02 24.1 9.03 36.1 1.91 7.62 3.81 15.2 5.72 22.9 0.218 0.871 0.436 1.74 0.661 2.64 3.45 13.8 6.9 27.6 10.4 41.4 0.237 0.948 0.474 1.9 0.719 2.87 2.43 9.72 4.86 19.4 7.29 29.2 1.23 4.92 2.46 9.85 3.69 14.8 0.245 0.979 0.49 1.96 0.742 2.97 4.01 16 8.02 32.1 12 48.1 4.15 16.6 8.3 33.2 12.4 49.8 2.54 10.2 5.09 20.3 7.64 30.5 1.73 6.93 3.47 13.9 5.2 20.8 0.997 3.99 2 7.98 3 12 0.915 3.65 1.83 7.3 2.74 11 0.486 1.95 0.974 3.89 1.46 5.84 0.432 1.74 0.432 1.74 0.873 3.51 0.249 0.996 0.498 1.99 0.755 3.02 1.06 4.65 1.77 9.13 1.8 13.9 0.00957 1.44 0.00957 1.44 0.0193 2.91 0.00111 1.03 0.00223 2.06 0.00337 3.12 0.00333 1.09 0.00666 2.17 0.0101 3.29 0.00506 2.31 0.00741 4.61 0.00725 6.92 0.00215 3.44 0.0202 6.88 0.0393 10.3 0.0296 11.3-0.219 22.6-1.1 33.9-0.0762 0.992-0.152 1.98-0.231 3.01-2.99 34.5-18.8 73.2-44.6 97.2-2.56 2.54-2.44 4.65-2.45 8.11-0.00821 1.53-0.00821 1.53-0.0166 3.09-9.78e-4 1.13-0.00196 2.26-0.00296 3.43-0.00494 1.19-0.00988 2.39-0.015 3.62-0.0127 3.32-0.021 6.65-0.0274 9.97-0.00799 3.58-0.0217 7.16-0.0347 10.7-0.0218 6.21-0.0399 12.4-0.0556 18.6-0.0227 8.98-0.0508 18-0.0803 26.9-0.0477 14.6-0.091 29.1-0.131 43.7-0.0393 14.1-0.0808 28.3-0.125 42.4-0.00272 0.872-0.00545 1.74-0.00826 2.64-0.0137 4.37-0.0274 8.75-0.0411 13.1-0.114 36.3-0.221 72.6-0.323 109h-48c-0.33-48.8-0.66-97.7-1-148h-435c-0.33 88.8-0.66 178-1 269 144-0.33 288-0.66 436-1 0.33-23.4 0.66-46.9 1-71 6.81-0.0206 13.6-0.0412 20.6-0.0625 3.21-0.0137 3.21-0.0137 6.48-0.0276 1.71-0.00292 3.42-0.00547 5.12-0.00757 0.876-0.00512 1.75-0.0102 2.66-0.0155 1.28-1.81e-4 1.28-1.81e-4 2.58-3.66e-4 0.733-0.00222 1.47-0.00444 2.22-0.00673 2.79 0.145 5.56 0.66 8.32 1.12v265h72c11.3 11.3 1 32 1 48h-1552v-48h72c0.0507-57.6 0.0991-115 0.127-173 4.14e-4 -0.852 8.28e-4 -1.7 0.00126-2.58 0.00898-18.5 0.0173-37 0.0249-55.6 0.00374-9.08 0.00763-18.2 0.0116-27.2 5.88e-4 -1.36 5.88e-4 -1.36 0.00119-2.74 0.0128-29.3 0.0353-58.6 0.0629-87.9 0.0283-30.1 0.0468-60.2 0.0529-90.3 8.65e-4 -4.25 0.00184-8.5 0.00289-12.7 2.02e-4 -0.836 4.05e-4 -1.67 6.13e-4 -2.53 0.00355-13.5 0.0175-27 0.0353-40.4 0.0176-13.5 0.0244-27.1 0.02-40.6-0.00229-8.05 0.00385-16.1 0.0219-24.2 0.0125-6 0.00951-12 3.04e-4 -18-0.00127-2.44 0.00259-4.87 0.012-7.31 0.0119-3.3 0.00561-6.6-0.00551-9.89 0.00788-0.957 0.0158-1.91 0.0239-2.9-0.0573-7.47-2.16-11.1-7.33-16.4-18.3-20.1-30.2-44.8-36.9-71-0.287-1.1-0.287-1.1-0.579-2.21-11.7-48.8-4-100 9.57-147 2.56-8.92 4.91-17.9 7.17-26.9 0.174-0.692 0.348-1.38 0.527-2.1 0.703-2.8 1.41-5.6 2.11-8.41 1.23-4.91 2.47-9.81 3.72-14.7 4.91-19.3 9.7-38.5 14.4-57.8 5.22-21.3 10.5-42.6 15.9-63.8 1.33-5.24 2.67-10.5 4-15.7 0.165-0.648 0.33-1.3 0.5-1.96 3.68-14.5 7.32-28.9 10.9-43.4 0.329-1.32 0.658-2.63 0.987-3.95 3.91-15.6 7.79-31.3 11.6-46.9 0.586-2.39 1.17-4.78 1.76-7.17 1.7-6.91 3.39-13.8 5.07-20.7 0.69-2.83 1.38-5.66 2.08-8.49 0.469-1.92 0.934-3.83 1.4-5.75 0.434-1.76 0.434-1.76 0.876-3.56 0.367-1.51 0.367-1.51 0.742-3.04 1.53-5.63 3.3-11.2 5.02-16.8l240-1 4-26c0.883-4.74 1.78-9.43 2.81-14.1 0.254-1.16 0.507-2.32 0.769-3.51 7.1-31.6 18-62.3 32.4-91.4 0.486-0.989 0.972-1.98 1.47-3 15.2-30.8 35.1-59 57.5-85l2-2.35c3.28-3.8 6.69-7.38 10.3-10.9 1.67-1.71 3.19-3.48 4.72-5.32 14.3-16.6 32.4-30.6 50-43.4 0.591-0.434 1.18-0.868 1.79-1.32 14.4-10.5 29.2-20 44.9-28.5 2.25-1.21 4.49-2.45 6.72-3.69 48.4-26.5 102-39.5 157-45.5 1.12-0.129 1.12-0.129 2.27-0.261 6.1-0.665 12.1-0.926 18.3-0.977zm120 288c-28.5 34.3-37.9 85.1-34.7 129 2.34 25.4 8.98 49.5 28.9 66.8 15.9 11.9 36.6 15.3 56 12.6 17.2-2.73 33.1-10.1 43.9-24.1 21.4-30.2 20.6-72.5 14.9-108-4.89-28.1-14.7-57.2-33.9-78.9-0.552-0.634-1.1-1.27-1.67-1.92-8.05-8.67-19.4-15.5-31.3-16.3-17.8-0.26-30.3 7.51-42.1 20.5zm-188 76.6c-1.82 0.0106-1.82 0.0106-3.68 0.0213-1.35 0.013-2.71 0.0261-4.06 0.0392-1.42 0.0101-2.84 0.0198-4.26 0.0291-3.86 0.0265-7.72 0.0593-11.6 0.0931-4.03 0.0343-8.06 0.0629-12.1 0.0921-7.64 0.0562-15.3 0.118-22.9 0.181-8.69 0.0717-17.4 0.138-26.1 0.203-17.9 0.135-35.8 0.277-53.6 0.424-0.0466 7.65-0.082 15.3-0.104 23-0.0104 3.55-0.0244 7.11-0.0473 10.7-0.0261 4.1-0.0356 8.19-0.0444 12.3-0.0103 1.26-0.0206 2.52-0.0313 3.82-0.00177 14.1 2.4 25.9 12.3 36.5 9.39 8.76 20.2 11.9 32.8 12 0.663 0.00496 1.33 0.00993 2.01 0.015 2.18 0.0145 4.35 0.0214 6.53 0.0269 0.751 0.00283 1.5 0.00565 2.27 0.00857 3.98 0.015 7.95 0.0242 11.9 0.0285 4.07 0.00546 8.14 0.0294 12.2 0.058 3.16 0.0188 6.32 0.0238 9.48 0.0254 1.5 0.00299 3 0.0109 4.5 0.0242 14.9 0.122 29.1-1.49 40.7-11.8 11.1-11.8 12.7-25 12.6-40.6-0.00193-1.06-0.00387-2.11-0.00586-3.2-0.074-14.3-0.604-28.5-1.12-42.8-2.68-1.34-4.7-1.11-7.71-1.08zm-531 49.1c-2.57 6.85-2.57 6.85-4.56 13.8-0.269 1.08-0.538 2.15-0.815 3.26-0.284 1.16-0.567 2.31-0.86 3.5-0.472 1.89-0.943 3.79-1.41 5.68-0.503 2.02-1 4.05-1.5 6.08-1.06 4.28-2.12 8.57-3.19 12.8-1.49 5.98-2.97 12-4.46 18-3.22 13-6.47 26-9.71 39-0.498 1.99-0.996 3.99-1.49 5.98-4.58 18.3-9.22 36.7-13.9 55-0.163 0.64-0.326 1.28-0.495 1.94-0.33 1.29-0.66 2.59-0.99 3.88-6.02 23.6-11.9 47.3-17.7 70.9-4.23 17.2-8.49 34.4-12.9 51.6-0.3 1.18-0.3 1.18-0.606 2.38-1.93 7.58-3.86 15.2-5.8 22.7-0.701 2.74-1.4 5.48-2.1 8.22-0.48 1.88-0.962 3.75-1.44 5.63-0.283 1.11-0.566 2.22-0.857 3.36-0.372 1.45-0.372 1.45-0.751 2.93-0.599 2.23-0.599 2.23-0.524 4.29h245c5.02-42.6 5.02-42.6 9.78-85.3 0.95-8.77 1.91-17.5 2.87-26.3 0.0979-0.896 0.196-1.79 0.297-2.71 2.1-19.2 4.26-38.4 6.43-57.6 0.739-6.54 1.48-13.1 2.21-19.6 0.141-1.25 0.141-1.25 0.284-2.52 2.72-24.1 5.39-48.2 8.06-72.3 0.12-1.08 0.241-2.17 0.365-3.29 1.01-9.08 2.02-18.2 3.02-27.2 0.145-1.31 0.145-1.31 0.294-2.65 0.189-1.7 0.376-3.4 0.563-5.11 0.449-4.08 0.911-8.16 1.4-12.2 0.0936-0.793 0.187-1.59 0.284-2.4 0.173-1.46 0.351-2.93 0.535-4.39 0.689-5.88 0.595-11.3 0.595-17.3h-196zm1027 1c0.215 11.2 1.59 22.4 2.82 33.5 0.185 1.7 0.369 3.4 0.554 5.1 0.5 4.6 1 9.2 1.51 13.8 0.54 4.93 1.08 9.85 1.61 14.8 1.04 9.51 2.08 19 3.12 28.5 0.838 7.65 1.67 15.3 2.51 23 0.118 1.08 0.237 2.17 0.359 3.29 0.24 2.19 0.479 4.39 0.719 6.58 1.56 14.3 3.12 28.5 4.68 42.8 2.43 22.2 4.86 44.4 7.26 66.6 0.0873 0.805 0.175 1.61 0.265 2.44 0.0862 0.795 0.172 1.59 0.261 2.41 1.05 9.72 2.11 19.4 3.18 29.2 0.743 6.8 1.48 13.6 2.22 20.4 0.675 6.25 1.36 12.5 2.04 18.7 0.245 2.24 0.488 4.48 0.728 6.72 0.322 3 0.653 6.01 0.986 9.01 0.0908 0.867 0.182 1.73 0.275 2.63 0.0902 0.796 0.18 1.59 0.273 2.41 0.0741 0.681 0.148 1.36 0.225 2.06 0.45 2.62 0.45 2.62 2.41 7.06 80.5-0.33 161-0.66 244-1-1.51-8.54-1.51-8.54-3.43-16.9-0.266-1.04-0.532-2.08-0.806-3.15-0.286-1.1-0.571-2.2-0.866-3.34-0.306-1.19-0.612-2.39-0.927-3.62-0.662-2.59-1.33-5.17-1.99-7.76-1.82-7.07-3.62-14.1-5.43-21.2-0.188-0.736-0.375-1.47-0.568-2.23-4.07-16-8.03-32-12-48-1.6-6.53-3.21-13.1-4.81-19.6-0.176-0.716-0.352-1.43-0.533-2.17-3.86-15.7-7.76-31.4-11.7-47.1-0.163-0.653-0.327-1.31-0.495-1.98-3.88-15.5-7.78-31-11.7-46.5-0.176-0.693-0.353-1.39-0.534-2.1-1.6-6.29-3.2-12.6-4.8-18.9-4.07-16-8.1-32-12-48-0.187-0.761-0.374-1.52-0.567-2.31-1.81-7.37-3.62-14.7-5.42-22.1-0.496-2.03-0.993-4.07-1.49-6.1-0.606-2.48-1.21-4.96-1.81-7.44-0.266-1.09-0.532-2.18-0.806-3.3-0.346-1.42-0.346-1.42-0.699-2.87-0.537-2.27-0.537-2.27-1.61-4.26-25.5-0.0233-51.1-0.041-76.6-0.0518-11.9-0.00516-23.7-0.0122-35.6-0.0236-10.3-0.00994-20.7-0.0164-31-0.0186-5.47-0.00131-10.9-0.0044-16.4-0.0116-5.15-0.00676-10.3-0.00889-15.4-0.00738-1.89-2.76e-4 -3.79-0.00228-5.68-0.0061-2.57-0.00493-5.15-0.00379-7.72-0.00105-1.14-0.00437-1.14-0.00437-2.3-0.00883-3.42-0.297-3.42-0.297-6.26 1.13zm-799 151c-1.55 9.53-2.77 19.1-3.85 28.7-0.174 1.53-0.349 3.06-0.523 4.59-0.47 4.12-0.936 8.24-1.4 12.4-0.292 2.59-0.585 5.17-0.878 7.76-3.06 27-6.07 54-9.05 80.9-0.295 2.67-0.592 5.35-0.889 8.02-0.469 4.23-0.935 8.45-1.4 12.7-0.169 1.54-0.34 3.08-0.511 4.62-0.237 2.13-0.47 4.26-0.702 6.39l-0.396 3.59c-0.59 6.45-0.97 12.9-1.4 19.4h113v47c-5.25-0.0157-5.25-0.0157-10.6-0.0317-11.5-0.0331-23.1-0.0553-34.6-0.0719-7-0.0103-14-0.0244-21-0.0473-6.75-0.022-13.5-0.0337-20.2-0.0389-2.58-0.0037-5.16-0.0109-7.74-0.0217-3.6-0.0145-7.21-0.0165-10.8-0.0156-1.07-0.00719-2.15-0.0144-3.25-0.0218-1.47 0.00412-1.47 0.00412-2.97 0.00833-0.853-0.00184-1.71-0.00369-2.58-0.00559-2.47 0.111-2.47 0.111-5.18 2.25-0.567 2.6-0.936 4.99-1.19 7.62-0.0782 0.762-0.156 1.52-0.237 2.31-3.1 32.7 5.65 65.2 26.8 90.7 20 23.4 45.4 38 75.6 43.4l3.31 0.586c32.6 3.66 65.1-4.91 91-25.2 24.9-20.1 41.5-48.4 45.7-80.4 1.01-12.2 1.14-24.4 1.23-36.6 0.0125-1.4 0.03-2.79 0.0526-4.19 0.0298-1.97 0.0376-3.95 0.0444-5.92 0.014-1.71 0.014-1.71 0.0283-3.46-0.123-2.81-0.123-2.81-1.64-4.61-1.8-1.28-3.52-2.23-5.53-3.14-0.755-0.344-1.51-0.689-2.29-1.04-1.22-0.549-1.22-0.549-2.46-1.11-28.6-13.3-55.2-30.8-79.4-50.9l-3.06-2.54c-17.4-14.5-35.1-30-49-47.9-1.88-2.4-3.84-4.71-5.84-7-7.3-8.42-13.8-17.4-20.1-26.5-0.442-0.631-0.884-1.26-1.34-1.91-15.5-22.3-28.5-46.1-39.1-71.1-0.438-1.03-0.876-2.05-1.33-3.11-0.58-1.38-0.58-1.38-1.17-2.79-0.895-2.26-0.895-2.26-3.08-3.11zm766 1c-0.311 0.683-0.622 1.37-0.943 2.07-17.9 39.3-38 76.5-66.6 109-1.15 1.36-2.27 2.74-3.37 4.13-5.7 7.17-11.9 13.7-18.4 20.1-1.71 1.7-3.42 3.4-5.13 5.11-1.09 1.09-2.18 2.17-3.28 3.26-0.762 0.761-0.762 0.761-1.54 1.54-3.57 3.53-3.57 3.53-5.81 4.64v2c-0.86 0.377-0.86 0.377-1.74 0.762-2.56 1.4-4.33 3.03-6.45 5.05-9.56 8.76-20.1 16.5-30.8 23.8-0.654 0.451-1.31 0.902-1.98 1.37-0.746 0.513-1.49 1.03-2.26 1.55-0.86 0.715-0.86 0.715-1.74 1.45v2h172c-4.48-43.5-4.48-43.5-9.14-87.1-0.256-2.34-0.512-4.68-0.767-7.01-0.649-5.93-1.3-11.9-1.95-17.8-1.06-9.62-2.11-19.2-3.16-28.8-0.36-3.28-0.72-6.57-1.08-9.85-0.112-1.02-0.224-2.04-0.339-3.09-0.217-1.98-0.435-3.95-0.654-5.93-0.517-4.69-1.01-9.39-1.45-14.1-0.0852-0.889-0.17-1.78-0.258-2.69-0.159-1.67-0.31-3.34-0.452-5.01-0.181-1.88-0.458-3.76-0.754-5.63l-2-1zm-1087 236c0 40.3 3.45 72.8 30 104 0.59 0.736 1.18 1.47 1.79 2.23 16.2 19.5 40.9 31.9 65.2 37.8 1.02 0.246 2.03 0.492 3.08 0.746 31.3 6.06 63.4-1.86 89.9-18.7 3.53-2.48 6.79-5.13 10-8 0.826-0.708 1.65-1.42 2.5-2.14 19.7-17.2 32.5-38.5 38.5-63.9l0.645-2.7c3.55-16.2 2.36-32.7 2.36-49.3h-244zm874 0c-0.0297 4.21-0.0511 8.41-0.0652 12.6-0.00591 1.43-0.014 2.85-0.0244 4.28-0.254 35.8 10.6 67.9 35.8 93.9 17 16.9 37.9 27.9 61.3 33.2 1.46 0.34 1.46 0.34 2.96 0.688 30 5.78 62.3-0.902 87.8-17.5 4.63-3.18 8.99-6.54 13.2-10.2 0.819-0.686 1.64-1.37 2.48-2.08 21.2-18.2 37-46.7 39.5-74.9 0.632-12.9 0.0347-26.2-2-39-1.93-1.93-4.84-1.12-7.41-1.13-0.931 0.00291-1.86 0.00583-2.82 0.00883-1.47-0.00128-1.47-0.00128-2.97-0.00259-3.31-0.00166-6.63 0.00387-9.94 0.00932-2.36 2.82e-4 -4.73 1.24e-4 -7.09-4.43e-4 -5.77-2.58e-4 -11.5 0.00409-17.3 0.0104-6.71 0.00713-13.4 0.00864-20.1 0.00979-12 0.00219-23.9 0.00885-35.9 0.0183-11.6 0.00917-23.3 0.0163-34.9 0.0205-0.717 2.63e-4 -1.43 5.25e-4 -2.17 7.96e-4 -3.59 0.0013-7.19 0.00257-10.8 0.00381-29.8 0.0104-59.7 0.0281-89.5 0.0503zm288 0c5.27 56.1 5.27 56.1 33 104 0.626 0.762 1.25 1.52 1.9 2.31 16.5 19.4 40.6 31.8 65.1 37.7 1.02 0.246 2.03 0.492 3.08 0.746 31.3 6.06 63.4-1.86 89.9-18.7 3.53-2.48 6.79-5.13 10-8 0.826-0.708 1.65-1.42 2.5-2.14 25-21.8 38.9-50.9 41.5-83.9v-32h-247zm-579 4c-0.777 40 5.27 75.2 33.8 105 12.1 12.3 25.7 20.4 41.2 27.6 0.857 0.41 1.71 0.82 2.6 1.24 23.5 10.4 52 10.3 76.4 3.76 1.01-0.265 1.01-0.265 2.04-0.535 18.5-5.03 38.9-16.2 52-30.5v-2c0.99-0.33 1.98-0.66 3-1 1.83-2.05 3.52-4.08 5.19-6.25 0.488-0.633 0.977-1.27 1.48-1.92 15.4-20.3 25-44 25.6-69.7 0.0312-1.08 0.0312-1.08 0.063-2.19 0.0648-2.28 0.124-4.56 0.183-6.85 0.0433-1.56 0.0869-3.12 0.131-4.67 0.106-3.8 0.208-7.59 0.307-11.4-2.81-1.41-4.18-0.582-7.19 0.258-1.08 0.294-2.16 0.587-3.27 0.89-1.17 0.323-2.34 0.645-3.55 0.978-20.4 5.45-41.1 9.37-62 11.9-0.829 0.104-1.66 0.209-2.51 0.316-51.5 6.25-103 0.21-153-12.3-1.16-0.29-2.32-0.579-3.52-0.878-2.83-0.705-5.65-1.41-8.48-2.12zm-316 108c-1.27 1.45-1.27 1.45-2.5 3.37-0.733 1.07-0.733 1.07-1.48 2.17-0.52 0.771-1.04 1.54-1.58 2.34-4.16 6.03-8.41 11.7-13.4 17-1.82 1.93-3.5 3.93-5.18 5.99-17.2 19.5-41.6 32.5-65.8 41.1-0.618 0.223-1.24 0.446-1.87 0.675-39.2 13.8-82.4 10.7-120-5.57-2.79-1.28-2.79-1.28-5.84-1.1-0.0231 7.81-0.0409 15.6-0.0518 23.4-0.00523 3.62-0.0123 7.25-0.0236 10.9-0.0108 3.49-0.0168 6.99-0.0194 10.5-0.00276 1.99-0.0106 3.98-0.0184 5.96-7.55e-5 1.2-1.51e-4 2.4-2.29e-4 3.64-0.00222 1.06-0.00444 2.13-0.00673 3.22-0.151 2.35-0.151 2.35 1.12 3.4 2.85 0.0999 5.67 0.133 8.52 0.125 1.37 0.0021 1.37 0.0021 2.76 0.00425 3.1 0.00352 6.19-1.78e-4 9.29-0.00376 2.23 0.00104 4.47 0.00252 6.7 0.0044 6.2 0.00393 12.4 0.00155 18.6-0.00178 6.03-0.00226 12.1 1.69e-4 18.1 0.00248 12.5 0.00461 25 0.00444 37.5 0.00172 12.7-0.00275 25.3-0.00334 38-0.00126 0.798 1.29e-4 1.6 2.58e-4 2.42 3.91e-4 3.25 5.33e-4 6.5 0.00108 9.75 0.00165 30.3 0.0053 60.6 0.00565 90.9 0.00285 0.899-8.28e-5 1.8-1.66e-4 2.72-2.51e-4 0.901-8.29e-5 1.8-1.66e-4 2.73-2.51e-4 27.4-0.00252 54.8-0.00318 82.2-0.00198 1.83 7.75e-5 3.67 1.55e-4 5.5 2.31e-4 7.36 3.1e-4 14.7 6.29e-4 22.1 9.6e-4 20.6 9.17e-4 41.2 0.00149 61.8 0.00179 0.938 1.36e-5 1.88 2.73e-5 2.84 4.14e-5 29.9 4.09e-4 59.8-7.19e-4 89.7-0.00289 0.97-7.02e-5 1.94-1.4e-4 2.94-2.13e-4 15.8-0.00115 31.5-0.00236 47.3-0.00359 62.5-0.00486 125-0.00463 187 2.31e-4 15.7 0.00122 31.5 0.00243 47.2 0.00357 0.969 7.04e-5 1.94 1.41e-4 2.94 2.13e-4 29.9 0.00216 59.7 0.00307 89.6 0.00264 0.937-1.36e-5 1.87-2.72e-5 2.84-4.12e-5 20.6-3.12e-4 41.1-9.46e-4 61.7-0.00187 7.36-3.29e-4 14.7-6.42e-4 22.1-9.51e-4 1.83-7.74e-5 3.66-1.56e-4 5.49-2.36e-4 27.4-0.0012 54.8-1.74e-4 82.2 0.00235 0.899 8.28e-5 1.8 1.66e-4 2.72 2.51e-4 0.898 8.27e-5 1.8 1.65e-4 2.72 2.51e-4 30.2 0.00275 60.5 0.00175 90.7-0.00353 3.24-5.52e-4 6.48-0.00109 9.72-0.00161 1.19-1.95e-4 1.19-1.95e-4 2.41-3.95e-4 12.6-0.00198 25.3-5.93e-4 37.9 0.00216 12.4 0.00264 24.8 0.00173 37.2-0.00301 6.64-0.00245 13.3-0.00316 19.9 4.06e-4 6.03 0.0032 12.1 0.0019 18.1-0.00318 2.18-0.00102 4.36-3.15e-4 6.54 0.00221 2.94 0.00316 5.87 2.85e-4 8.81-0.00424 1.29 0.00359 1.29 0.00359 2.61 0.00724 3.76 0.352 3.76 0.352 6.91-1.13 0.123-1.84 0.178-3.69 0.205-5.53 0.0199-1.18 0.0399-2.36 0.0604-3.58 0.0167-1.29 0.0334-2.57 0.0506-3.9 0.0208-1.31 0.0416-2.62 0.063-3.96 0.0553-3.48 0.105-6.97 0.153-10.5 0.0502-3.55 0.106-7.1 0.161-10.7 0.108-6.97 0.209-13.9 0.307-20.9-3.97-1.32-6.19 0.0442-9.88 1.56-42.6 16.6-88.2 16.9-131-0.949-18.1-8.1-33.9-18.2-48.6-31.6l-1.51-1.38c-9.56-8.82-17.6-19-24.9-29.7-1.15-1.67-2.36-3.31-3.58-4.93h-2c-1.46 2.1-2.8 4.19-4.12 6.38-3.9 6.24-8.07 12-12.9 17.6-0.771 0.905-1.54 1.81-2.34 2.74-5.71 6.5-11.8 12-18.7 17.3-1.33 1.08-1.33 1.08-2.7 2.17-18.4 14.4-39.7 24.3-62.3 29.8-1.11 0.275-2.22 0.549-3.37 0.832-30 6.9-60.4 5.53-89.6-3.83-0.699-0.215-1.4-0.43-2.12-0.651-22.8-7.05-43.2-19.5-60.4-36-2.45-2.39-2.45-2.39-5.07-4.37-2.64-2.17-4.62-4.46-6.75-7.13-0.776-0.969-1.55-1.94-2.35-2.94-1.16-1.45-1.16-1.45-2.34-2.94l-2.15-2.62c-3.87-4.75-7.4-9.55-10.6-14.8-0.607-0.801-0.607-0.801-1.23-1.62h-2c-1.44 2.01-1.44 2.01-2.94 4.62-12.6 20.2-29.2 36.4-49.1 49.4-0.686 0.456-1.37 0.912-2.08 1.38-36.2 23.7-82.7 30.8-125 22.6-42.7-9.62-80.1-33.9-105-70-1.41-2.3-2.71-4.63-4-7-1.89 0.0968-1.89 0.0968-4 1-1.93 2.38-1.93 2.38-3.69 5.38-4.02 6.28-8.45 12-13.3 17.6-0.794 0.929-1.59 1.86-2.41 2.82-5.69 6.47-11.7 12-18.6 17.2-0.526 0.401-1.05 0.801-1.59 1.21-18.7 14.2-39.5 24.2-62.4 29.8-1.11 0.275-2.22 0.549-3.37 0.832-43 9.91-87.7 2.56-126-19.8-22.4-14-41-32.1-55.2-54.4l-1.8-2.55h-2zm-218 175c-0.0966 1.44-0.124 2.88-0.123 4.32-0.00199 0.939-0.00398 1.88-0.00603 2.85 0.00291 1.04 0.00583 2.09 0.00883 3.16-8.54e-4 1.1-0.00171 2.2-0.00259 3.33-0.00166 3.71 0.00387 7.43 0.00932 11.1 2.82e-4 2.65 1.68e-4 5.3-4.43e-4 7.95-5.25e-4 5.72 0.00262 11.4 0.00824 17.2 0.00811 8.27 0.0107 16.5 0.012 24.8 0.00219 13.4 0.00885 26.8 0.0183 40.3 0.00917 13 0.0163 26.1 0.0205 39.1 2.63e-4 0.803 5.25e-4 1.61 7.96e-4 2.43 0.0013 4.03 0.00257 8.06 0.00381 12.1 0.0104 33.5 0.028 66.9 0.0503 100 55.7 0.0229 111 0.0405 167 0.0511 6.56 0.00125 13.1 0.00255 19.7 0.00387 1.96 3.93e-4 1.96 3.93e-4 3.96 7.95e-4 21.2 0.00436 42.4 0.0122 63.6 0.0214 21.7 0.00933 43.4 0.0149 65.2 0.0169 13.4 0.00138 26.8 0.00573 40.2 0.0138 9.19 0.00527 18.4 0.00689 27.6 0.00558 5.31-6.44e-4 10.6 3.77e-4 15.9 0.0057 4.85 0.00483 9.7 0.00513 14.6 0.00169 1.76-4.26e-4 3.53 8.71e-4 5.29 0.00398 2.38 0.00396 4.76 0.00188 7.14-0.00184 0.698 0.00263 1.4 0.00525 2.12 0.00796 3.19 0.256 3.19 0.256 5.83-1.13 0.0966-1.43 0.124-2.87 0.123-4.31 0.00199-0.936 0.00398-1.87 0.00603-2.83-0.00437-1.56-0.00437-1.56-0.00883-3.15 8.54e-4 -1.1 0.00171-2.19 0.00259-3.32 0.00166-3.7-0.00387-7.4-0.00932-11.1-2.82e-4 -2.64-1.68e-4 -5.28 4.43e-4 -7.92 5.25e-4 -5.7-0.00262-11.4-0.00824-17.1-0.00811-8.24-0.0107-16.5-0.012-24.7-0.00219-13.4-0.00885-26.7-0.0183-40.1-0.00917-13-0.0163-26-0.0205-39-2.63e-4 -0.8-5.25e-4 -1.6-7.96e-4 -2.43-0.0013-4.01-0.00257-8.03-0.00381-12-0.0104-33.3-0.028-66.7-0.0503-100-11.3-0.845-22.6-1.14-33.9-1.13-1.75-0.00116-3.5-0.00275-5.25-0.00473-4.76-0.00414-9.52-0.00213-14.3 9.86e-4 -5.15 0.00228-10.3-0.00124-15.5-0.00398-10.1-0.00443-20.1-0.00349-30.2-5.87e-4 -8.18 0.00226-16.4 0.00256-24.5 0.00148-1.17-1.53e-4 -2.33-3.06e-4 -3.53-4.64e-4 -2.37-3.2e-4 -4.74-6.44e-4 -7.11-9.73e-4 -22.2-0.00285-44.3 4.21e-4 -66.5 0.0058-19 0.00448-38.1 0.00368-57.1-9.19e-4 -22.1-0.00534-44.2-0.00746-66.4-0.00439-2.36 3.19e-4 -4.71 6.33e-4 -7.07 9.43e-4 -1.16 1.54e-4 -2.32 3.09e-4 -3.51 4.68e-4 -8.18 8.65e-4 -16.4-5.97e-4 -24.5-0.00295-9.95-0.0028-19.9-0.00206-29.9 0.00328-5.08 0.00264-10.2 0.00364-15.2 3.51e-4 -4.64-0.00296-9.29-0.00137-13.9 0.00398-1.69 0.00112-3.37 5.31e-4 -5.06-0.00188-2.28-3e-3 -4.56 3.9e-5 -6.83 0.00472-1.9 2.44e-4 -1.9 2.44e-4 -3.85 4.92e-4 -2.71-0.195-2.71-0.195-3.81 1.13zm486 0c-0.105 2.45-0.144 4.88-0.141 7.34-0.00314 0.781-0.00628 1.56-0.00952 2.37-0.00942 2.65-0.0116 5.3-0.014 7.95-0.00528 1.91-0.011 3.81-0.0171 5.72-0.0156 5.26-0.0249 10.5-0.0332 15.8-0.01 5.67-0.0258 11.3-0.0408 17-0.0285 11.1-0.0516 22.2-0.0728 33.3-0.0173 9.03-0.0365 18.1-0.0572 27.1-0.00293 1.28-0.00586 2.56-0.00887 3.88-0.00596 2.6-0.0119 5.21-0.0179 7.81-0.0542 23.7-0.103 47.5-0.149 71.2-0.0422 21.7-0.0897 43.4-0.141 65.1-0.0581 24.4-0.113 48.7-0.163 73.1-0.0053 2.59-0.0106 5.19-0.0159 7.78-0.00261 1.28-0.00522 2.55-0.00791 3.87-0.0187 9.02-0.0397 18-0.0616 27.1-0.0266 11-0.0496 22-0.0681 33-0.00951 5.61-0.0207 11.2-0.0361 16.8-0.0141 5.13-0.0236 10.3-0.0293 15.4-0.00291 1.86-0.00754 3.73-0.014 5.59-0.00846 2.52-0.0109 5.03-0.0116 7.55-0.00395 0.738-0.00789 1.48-0.012 2.24-0.287 3.33-0.287 3.33 1.12 6.1 1.81 0.0975 3.62 0.124 5.43 0.123 1.78 0.00299 1.78 0.00299 3.6 0.00603 1.98-0.00437 1.98-0.00437 4-0.00883 1.4 4.37e-4 2.8 0.00131 4.2 0.00259 3.87 0.00225 7.75-0.00179 11.6-0.00678 4.23-0.00435 8.46-0.00291 12.7-0.00218 8.22 5.33e-4 16.4-0.0041 24.7-0.0105 9.51-0.00718 19-0.00799 28.5-0.00878 25.1-0.00526 50.2-0.0192 75.3-0.0321 56.1-0.0206 112-0.0412 170-0.0625v-463c-3.14-1.05-5.32-1.13-8.61-1.13-1.18-0.00261-2.35-0.00522-3.56-0.0079-1.95 0.00335-1.95 0.00335-3.93 0.00676-1.39-0.00115-2.78-0.00274-4.16-0.00473-3.82-0.00419-7.64-0.0021-11.5 9.86e-4 -4.12 0.00226-8.24-0.00123-12.4-0.00398-8.07-0.00445-16.1-0.00348-24.2-5.87e-4 -6.56 0.00225-13.1 0.00257-19.7 0.00148-0.932-1.53e-4 -1.86-3.06e-4 -2.82-4.64e-4 -1.89-3.2e-4 -3.79-6.44e-4 -5.68-9.73e-4 -17.8-0.00285-35.5 4.31e-4 -53.3 0.0058-15.3 0.00447-30.5 0.00369-45.8-9.19e-4 -17.7-0.00535-35.4-0.00746-53.1-0.00439-1.89 3.19e-4 -3.77 6.33e-4 -5.66 9.43e-4 -0.928 1.54e-4 -1.86 3.09e-4 -2.81 4.68e-4 -6.55 8.65e-4 -13.1-5.98e-4 -19.7-0.00295-7.98-0.0028-16-0.00206-23.9 0.00328-4.07 0.00264-8.15 0.00364-12.2 3.51e-4 -3.72-0.00296-7.45-0.00137-11.2 0.00398-2 0.00166-4-0.00163-6-0.00506-1.17 0.00261-2.34 0.00522-3.55 0.0079-1.53 2.44e-4 -1.53 2.44e-4 -3.09 4.92e-4 -2.24-0.13-2.24-0.13-3.28 1.13zm-486 317v146h438v-147c-55.7-0.022-111-0.0405-167-0.0511-6.56-0.00125-13.1-0.00255-19.7-0.00387-1.96-3.93e-4 -1.96-3.93e-4 -3.96-7.95e-4 -21.2-0.00436-42.4-0.0122-63.6-0.0214-21.7-0.00933-43.4-0.0149-65.2-0.0169-13.4-0.00138-26.8-0.00573-40.2-0.0138-9.19-0.00527-18.4-0.00689-27.6-0.00558-5.31 6.44e-4 -10.6-3.77e-4 -15.9-0.0057-4.85-0.00483-9.7-0.00513-14.6-0.00169-1.76 4.26e-4 -3.53-8.71e-4 -5.29-0.00398-2.38-0.00396-4.76-0.00188-7.14 0.00184-0.698-0.00263-1.4-0.00525-2.12-0.00796-3.19-0.256-3.19-0.256-5.83 1.13zm874-1v147h437v-147h-437z" fill="#000002"/>
<path transform="translate(824,1261)" d="m0 0h48v96h-47c-1.89-1.89-1.12-4.64-1.12-7.15 0.0036-0.885 0.00719-1.77 0.0109-2.68-1.46e-4 -0.927-2.92e-4 -1.85-4.43e-4 -2.81 7e-4 -3.08 0.00849-6.16 0.0163-9.24 0.00186-2.13 0.00329-4.26 0.00429-6.39 0.00383-5.61 0.0137-11.2 0.0247-16.8 0.012-6.73 0.0166-13.5 0.0225-20.2 0.00971-10.2 0.0289-20.5 0.0462-30.7z" fill="#000002"/>
<path transform="translate(727,1261)" d="m0 0h48v96h-47c-1.89-1.89-1.12-4.64-1.12-7.15 0.0036-0.885 0.00719-1.77 0.0109-2.68-1.46e-4 -0.927-2.92e-4 -1.85-4.43e-4 -2.81 7e-4 -3.08 0.00849-6.16 0.0163-9.24 0.00186-2.13 0.00329-4.26 0.00429-6.39 0.00383-5.61 0.0137-11.2 0.0247-16.8 0.012-6.73 0.0166-13.5 0.0225-20.2 0.00971-10.2 0.0289-20.5 0.0462-30.7z" fill="#000002"/>
<path transform="translate(224,1144)" d="m0 0c7.73-0.0206 15.5-0.0412 23.4-0.0625 2.44-0.0091 4.89-0.0182 7.41-0.0276 1.93-0.00292 3.85-0.00547 5.78-0.00757 1.51-0.00767 1.51-0.00767 3.06-0.0155 0.954-1.21e-4 1.91-2.42e-4 2.89-3.66e-4 0.833-0.00222 1.67-0.00444 2.52-0.00673 1.9 0.12 1.9 0.12 2.9 1.12 0.0981 1.44 0.128 2.88 0.129 4.32 0.00315 0.918 0.0063 1.84 0.00955 2.78-0.00202 0.998-0.00405 2-0.00613 3.02 9.57e-4 1.02 0.00191 2.03 0.0029 3.08 6.82e-4 2.16-0.00117 4.31-0.00534 6.47-0.00535 3.31-5.55e-5 6.62 0.00635 9.94-6.61e-4 2.09-0.00194 4.18-0.00391 6.27 0.00202 0.998 0.00405 2 0.00613 3.02-0.00473 1.38-0.00473 1.38-0.00955 2.78-7.96e-4 0.812-0.00159 1.62-0.00241 2.46-0.127 1.86-0.127 1.86-1.13 2.86-1.47 0.093-2.95 0.117-4.43 0.114-0.954-1.21e-4 -1.91-2.42e-4 -2.89-3.66e-4 -1.01-0.00512-2.02-0.0102-3.06-0.0155-0.923-0.00101-1.85-0.00201-2.8-0.00305-3.46-0.00525-6.92-0.0192-10.4-0.0321-7.73-0.0206-15.5-0.0412-23.4-0.0625v-48z" fill="#000002"/>
<path transform="translate(424 1144)" d="m0 0c1.16 0.00304 1.16 0.00304 2.34 0.00613 1.19-0.00144 1.19-0.00144 2.41-0.0029 1.69-6.82e-4 3.39 0.00118 5.08 0.00534 2.56 0.00528 5.12 9.06e-5 7.68-0.00635 1.65 6.62e-4 3.3 0.00195 4.95 0.00391 1.13-0.00304 1.13-0.00304 2.29-0.00613 5.7 0.0244 11 0.565 16.7 1.14v47c-7.73 0.0206-15.5 0.0412-23.4 0.0625-2.44 0.0091-4.89 0.0182-7.41 0.0276-1.93 0.00292-3.85 0.00547-5.78 0.00757-1.01 0.00512-2.02 0.0102-3.06 0.0155-1.43 1.81e-4 -1.43 1.81e-4 -2.89 3.66e-4 -0.833 0.00222-1.67 0.00444-2.52 0.00673-1.9-0.12-1.9-0.12-2.9-1.12-0.0981-1.44-0.128-2.88-0.129-4.32-0.00315-0.918-0.0063-1.84-0.00955-2.78 0.00202-0.998 0.00405-2 0.00613-3.02-9.57e-4 -1.02-0.00191-2.03-0.0029-3.08-6.82e-4 -2.16 0.00117-4.31 0.00534-6.47 0.00535-3.31 5.55e-5 -6.62-0.00635-9.94 6.61e-4 -2.09 0.00194-4.18 0.00391-6.27-0.00202-0.998-0.00405-2-0.00613-3.02 0.00315-0.918 0.0063-1.84 0.00955-2.78 7.96e-4 -0.812 0.00159-1.62 0.00241-2.46 0.276-4.05 3.26-2.98 6.63-3z" fill="#000002"/>
<path transform="translate(321,1144)" d="m0 0c6.68-0.0253 13.4-0.0428 20-0.0549 2.27-0.00504 4.55-0.0119 6.82-0.0205 3.26-0.0121 6.52-0.0178 9.78-0.0222 1.02-0.00516 2.05-0.0103 3.1-0.0156 0.941-7.55e-5 1.88-1.51e-4 2.85-2.29e-4 0.833-0.00222 1.67-0.00444 2.52-0.00673 1.9 0.12 1.9 0.12 2.9 1.12 0.0981 1.44 0.128 2.88 0.129 4.32 0.00315 0.918 0.0063 1.84 0.00955 2.78-0.00202 0.998-0.00405 2-0.00613 3.02 9.57e-4 1.02 0.00191 2.03 0.0029 3.08 6.82e-4 2.16-0.00117 4.31-0.00534 6.47-0.00535 3.31-5.55e-5 6.62 0.00635 9.94-6.61e-4 2.09-0.00194 4.18-0.00391 6.27 0.00202 0.998 0.00405 2 0.00613 3.02-0.00473 1.38-0.00473 1.38-0.00955 2.78-7.96e-4 0.812-0.00159 1.62-0.00241 2.46-0.127 1.86-0.127 1.86-1.13 2.86-1.44 0.0981-2.88 0.128-4.32 0.129-0.918 0.00315-1.84 0.0063-2.78 0.00955-0.998-0.00202-2-0.00405-3.02-0.00613-1.02 9.57e-4 -2.03 0.00191-3.08 0.0029-2.16 6.82e-4 -4.31-0.00117-6.47-0.00534-3.31-0.00535-6.62-5.55e-5 -9.94 0.00635-2.09-6.61e-4 -4.18-0.00194-6.27-0.00391-1.5 0.00304-1.5 0.00304-3.02 0.00613-0.918-0.00315-1.84-0.0063-2.78-0.00955-0.812-7.96e-4 -1.62-0.00159-2.46-0.00241-1.86-0.127-1.86-0.127-2.86-1.13-0.093-1.47-0.117-2.95-0.114-4.43 7.55e-5 -0.941 1.51e-4 -1.88 2.29e-4 -2.85 0.00516-1.02 0.0103-2.05 0.0156-3.1 0.00141-1.04 0.00283-2.08 0.00429-3.16 0.00562-3.34 0.0182-6.68 0.0309-10 0.00501-2.26 0.00958-4.52 0.0137-6.78 0.0111-5.55 0.0278-11.1 0.0488-16.7z" fill="#000002"/>
</svg>
